<?xml version="1.0" encoding="UTF-8"?>
<svg id="Camada_1" data-name="Camada 1" xmlns="http://www.w3.org/2000/svg" viewBox="0 0 2930.63 762.68">
  <defs>
    <style>
      .cls-1 {
        opacity: .7;
      }

      .cls-2 {
        opacity: .5;
      }

      .cls-3 {
        opacity: .3;
      }

      .cls-4 {
        fill: #69c555;
      }

      .cls-4, .cls-5 {
        stroke-width: 0px;
      }

      .cls-5 {
        fill: #2f473f;
      }
    </style>
  </defs>
  <path class="cls-5" d="m1441.67,252.9c-86.99,7.75-157.04,77.8-164.8,164.79-10.12,113.48,84.56,208.16,198.04,198.05,86.99-7.75,157.04-77.81,164.8-164.8,10.12-113.48-84.56-208.16-198.04-198.04Zm7.18,297c-56.15-4.47-101.65-49.96-106.13-106.11-5.69-71.36,53.67-130.73,125.04-125.04,56.16,4.48,101.64,49.97,106.11,106.13,5.68,71.35-53.67,130.7-125.02,125.02Z"/>
  <g>
    <g>
      <circle class="cls-4" cx="454.73" cy="505.39" r="39.18"/>
      <circle class="cls-4" cx="659.64" cy="271.6" r="73.71"/>
      <polygon class="cls-4" points="659.64 271.6 604.21 223.02 425.27 479.57 484.2 531.22 715.07 320.19 659.64 271.6"/>
    </g>
    <g class="cls-1">
      <g>
        <circle class="cls-4" cx="330.6" cy="492.9" r="27.92"/>
        <circle class="cls-4" cx="338.43" cy="271.5" r="52.53"/>
        <polygon class="cls-4" points="338.43 271.5 285.94 269.65 302.7 491.92 358.51 493.89 390.93 273.36 338.43 271.5"/>
      </g>
    </g>
    <g class="cls-2">
      <g>
        <circle class="cls-4" cx="241.24" cy="514.89" r="19.32"/>
        <circle class="cls-4" cx="156.58" cy="387.1" r="36.35"/>
        <polygon class="cls-4" points="156.58 387.1 126.27 407.18 225.13 525.56 257.34 504.22 186.88 367.03 156.58 387.1"/>
      </g>
    </g>
    <g class="cls-3">
      <circle class="cls-4" cx="174.61" cy="572.76" r="12.99"/>
      <circle class="cls-4" cx="86.16" cy="519.79" r="24.44"/>
      <polygon class="cls-4" points="86.16 519.79 73.6 540.76 167.93 583.91 181.28 561.61 98.72 498.82 86.16 519.79"/>
    </g>
  </g>
  <path class="cls-5" d="m2786.36,337.56c-5.57-17.42-14.95-33.83-28.03-46.72-36.56-36.03-88.6-42.5-137.75-36.93-35.77,4.05-63.25,11.45-87.5,17.98-1.55.42-3.08.83-4.62,1.24-3.53.95-5.61,4.55-4.68,8.09l13.34,50.54c.94,3.55,4.56,5.68,8.11,4.73,1.63-.44,3.26-.87,4.89-1.32,5.09-1.37,10.18-2.74,15.28-4.07,35.33-9.17,74.69-18.09,111.23-11.92,11.15,1.88,22.32,5.51,31.05,12.7,17.74,14.61,21.08,39.63,20.03,61.23-.1,2.01-1.98,3.39-3.93,2.9-31.76-7.88-79.52-13.64-136.79-1.25-36.45,7.89-66.73,31.76-80.98,63.85-13.92,31.35-11.35,67.71,7.08,99.77,26.5,46.11,83.05,58.57,136.46,58.57,56.22,0,108.94-13.81,119.44-16.73l19.14-5.32c2.87-.8,4.86-3.41,4.86-6.39v-169.74c0-27.34,1.86-54.66-6.64-81.23Zm-58.9,201.74c0,2.05-1.43,3.82-3.44,4.22-10.72,2.11-21.53,3.81-32.38,5.11-28.13,3.35-57.3,4.82-85.15-1.41-10.17-2.27-20.36-5.75-28.36-12.43-15.84-13.23-20.48-38.16-8.9-55.57,14.29-21.49,45.34-24.2,68.75-25.4,5.14-.27,10.27-.41,15.39-.41,24.19,0,48.14,3.11,71.2,11.12,1.73.6,2.89,2.22,2.89,4.05v70.72Z"/>
  <path class="cls-5" d="m1219.79,260.02h-53.08c-3.66,0-6.63,2.97-6.63,6.63v232.78c0,1.93-2.47,2.73-3.6,1.17l-173.16-237.9c-1.25-1.72-3.24-2.73-5.36-2.73h-64.17c-3.66,0-6.63,2.97-6.63,6.63v334.27c0,3.66,2.97,6.63,6.63,6.63h53.08c3.66,0,6.63-2.97,6.63-6.63v-232.78c0-1.93,2.47-2.73,3.6-1.17l173.11,237.86c1.25,1.72,3.24,2.73,5.36,2.73h64.21c3.66,0,6.63-2.97,6.63-6.63v-334.22c0-3.66-2.97-6.63-6.63-6.63Z"/>
  <rect class="cls-5" x="2373.52" y="260.54" width="73.63" height="347.2" rx="6.63" ry="6.63"/>
  <path class="cls-5" d="m1950.91,259.95h-288.28c-3.66,0-6.63,2.97-6.63,6.63v60.36c0,3.66,2.97,6.63,6.63,6.63h105.34c1.09,0,1.98.89,1.98,1.98v265.54c0,3.66,2.97,6.63,6.63,6.63h60.36c3.66,0,6.63-2.97,6.63-6.63v-265.54c0-1.09.89-1.98,1.98-1.98h105.34c3.66,0,6.63-2.97,6.63-6.63v-60.36c0-3.66-2.97-6.63-6.63-6.63Z"/>
  <path class="cls-5" d="m2169.1,512.51c-3.86-4.21-7.52-8.75-10.26-13.71-1.09-1.97.33-4.41,2.59-4.41h27.75c65.65,0,118.84-54.39,116.87-120.47-1.89-63.6-55.74-113.38-119.36-113.38h-173.47c-3.66,0-6.63,2.97-6.63,6.63v334.03c0,3.66,2.97,6.63,6.63,6.63h60.38c3.66,0,6.63-2.97,6.63-6.63v-102.5c0-2.74,3.34-4.07,5.23-2.09,1.98,1.67,4.94,12.58,12.25,24.67,47.18,78.03,131.4,112.27,224.45,88.17,2.9-.75,4.93-3.42,4.93-6.42v-47.7c0-3.79-3.64-6.46-7.28-5.42-6.01,1.71-12.19,2.87-18.37,3.76-8.75,1.26-17.59,1.9-26.42,1.95-10.4.06-20.82-.71-31.07-2.48-26.63-4.58-51.47-16.77-70.49-36.08-1.45-1.47-2.91-2.99-4.34-4.55Zm-88.81-85.66c-2.34,0-4.24-1.9-4.24-4.24v-95.81c0-2.34,1.9-4.24,4.24-4.24h100.46c28.71,0,53.34,22.46,53.86,51.17.53,29.25-23.01,53.12-52.14,53.12h-102.19Z"/>
  <path class="cls-5" d="m2673.91,142.87l-89.86,58.71c-6.67,4.36-4.85,14.6,2.91,16.39l22.35,5.16c7.44,1.72,15.22,1.17,22.34-1.57l114.49-44.05c12.55-4.83,11.28-22.99-1.83-26.02l-51.72-11.94c-6.42-1.48-13.17-.28-18.69,3.32Z"/>
</svg>