<?xml version="1.0" encoding="UTF-8"?>
<svg id="Camada_1" data-name="Camada 1" xmlns="http://www.w3.org/2000/svg" viewBox="0 0 3283.04 762.68">
  <defs>
    <style>
      .cls-1 {
        opacity: .7;
      }

      .cls-2 {
        opacity: .5;
      }

      .cls-3 {
        opacity: .3;
      }

      .cls-4 {
        fill: #69c555;
      }

      .cls-4, .cls-5 {
        stroke-width: 0px;
      }

      .cls-5 {
        fill: #2f473f;
      }
    </style>
  </defs>
  <path class="cls-5" d="m663.21,310.85c-107.93,9.62-194.85,96.54-204.47,204.47-12.55,140.81,104.92,258.28,245.72,245.73,107.94-9.62,194.85-96.54,204.47-204.48,12.55-140.81-104.92-258.27-245.73-245.72Zm8.9,368.5c-69.67-5.55-126.12-61.99-131.68-131.66-7.06-88.55,66.59-162.2,155.14-155.14,69.68,5.56,126.12,62,131.66,131.68,7.05,88.53-66.59,162.17-155.12,155.12Z"/>
  <g>
    <g>
      <circle class="cls-4" cx="2224.92" cy="197.39" r="25.15"/>
      <circle class="cls-4" cx="2356.46" cy="47.32" r="47.32"/>
      <polygon class="cls-4" points="2356.46 47.32 2320.87 16.13 2206.01 180.82 2243.84 213.97 2392.04 78.51 2356.46 47.32"/>
    </g>
    <g class="cls-1">
      <g>
        <circle class="cls-4" cx="2145.24" cy="189.38" r="17.92"/>
        <circle class="cls-4" cx="2150.26" cy="47.25" r="33.72"/>
        <polygon class="cls-4" points="2150.26 47.25 2116.57 46.06 2127.33 188.74 2163.15 190.01 2183.96 48.44 2150.26 47.25"/>
      </g>
    </g>
    <g class="cls-2">
      <g>
        <circle class="cls-4" cx="2087.87" cy="203.49" r="12.4"/>
        <circle class="cls-4" cx="2033.52" cy="121.46" r="23.33"/>
        <polygon class="cls-4" points="2033.52 121.46 2014.07 134.35 2077.53 210.34 2098.21 196.64 2052.98 108.58 2033.52 121.46"/>
      </g>
    </g>
    <g class="cls-3">
      <circle class="cls-4" cx="2045.1" cy="240.64" r="8.34"/>
      <circle class="cls-4" cx="1988.32" cy="206.64" r="15.69"/>
      <polygon class="cls-4" points="1988.32 206.64 1980.26 220.1 2040.81 247.79 2049.38 233.48 1996.39 193.18 1988.32 206.64"/>
    </g>
  </g>
  <path class="cls-5" d="m2331.64,415.89c-6.91-21.62-18.55-41.98-34.77-57.96-45.37-44.7-109.93-52.73-170.91-45.82-44.39,5.03-78.48,14.21-108.56,22.31-1.92.52-3.83,1.03-5.73,1.54-4.38,1.18-6.96,5.65-5.81,10.04l16.55,62.71c1.16,4.41,5.66,7.05,10.06,5.87,2.02-.54,4.04-1.09,6.07-1.63,6.32-1.7,12.63-3.4,18.96-5.04,43.84-11.38,92.67-22.44,138.01-14.78,13.84,2.34,27.69,6.83,38.53,15.76,22.02,18.13,26.16,49.18,24.85,75.97-.12,2.49-2.46,4.2-4.87,3.6-39.4-9.78-98.67-16.93-169.72-1.55-45.23,9.79-82.8,39.41-100.48,79.22-17.28,38.89-14.08,84.02,8.78,123.79,32.88,57.21,103.05,72.68,169.31,72.68,69.75,0,135.17-17.14,148.19-20.75l23.75-6.59c3.56-.99,6.03-4.23,6.03-7.93v-210.61c0-33.92,2.3-67.82-8.24-100.79Zm-73.08,250.3c0,2.54-1.77,4.74-4.27,5.24-13.3,2.62-26.71,4.73-40.18,6.34-34.91,4.15-71.1,5.98-105.65-1.75-12.62-2.82-25.26-7.14-35.18-15.42-19.66-16.41-25.42-47.35-11.04-68.95,17.73-26.66,56.26-30.02,85.3-31.52,6.37-.33,12.74-.51,19.1-.51,30.01-.01,59.73,3.86,88.34,13.8,2.15.75,3.58,2.75,3.58,5.03v87.74Z"/>
  <path class="cls-5" d="m387.91,319.69h-65.86c-4.55,0-8.23,3.69-8.23,8.23v288.83c0,2.39-3.06,3.39-4.47,1.45L94.5,323.02c-1.55-2.13-4.02-3.39-6.66-3.39H8.23c-4.55,0-8.23,3.69-8.23,8.23v414.74c0,4.55,3.69,8.23,8.23,8.23h65.86c4.55,0,8.23-3.69,8.23-8.23v-288.83c0-2.39,3.06-3.39,4.47-1.45l214.79,295.13c1.55,2.13,4.02,3.39,6.66,3.39h79.67c4.55,0,8.23-3.69,8.23-8.23v-414.69c0-4.55-3.69-8.23-8.23-8.23Z"/>
  <rect class="cls-5" x="1819.41" y="320.33" width="91.36" height="430.79" rx="8.23" ry="8.23"/>
  <path class="cls-5" d="m1295.05,319.6h-357.69c-4.55,0-8.23,3.69-8.23,8.23v74.9c0,4.55,3.69,8.23,8.23,8.23h130.71c1.36,0,2.46,1.1,2.46,2.46v329.47c0,4.55,3.69,8.23,8.23,8.23h74.9c4.55,0,8.23-3.69,8.23-8.23v-329.47c0-1.36,1.1-2.46,2.46-2.46h130.71c4.55,0,8.23-3.69,8.23-8.23v-74.9c0-4.55-3.69-8.23-8.23-8.23Z"/>
  <g>
    <g>
      <path class="cls-5" d="m2506.55,380.12h10.02l37.31,58.91v-58.91h8.78v72.35h-10.13l-37.21-58.71v58.71h-8.78v-72.35Z"/>
      <path class="cls-5" d="m2574.01,426.43c0-15.71,11.06-26.87,26.46-26.87s26.56,11.16,26.56,26.87-11.06,26.87-26.56,26.87-26.46-11.27-26.46-26.87Zm44.55,0c0-11.37-7.34-19.43-18.09-19.43s-17.98,8.06-17.98,19.43,7.34,19.43,17.98,19.43,18.09-8.06,18.09-19.43Z"/>
      <path class="cls-5" d="m2659.37,407.71c-10.54,0-13.54,9.51-13.54,21.81v22.95h-8.27v-52.09h8.27v10.54c2.17-7.13,6.51-10.54,14.16-10.54h6.1v7.34h-6.72Zm19.74-23.98v16.64h16.02v7.34h-16.02v28.22c0,5.79,3.31,9.2,8.37,9.2h7.65v7.34h-7.96c-9.92,0-16.33-6.2-16.33-16.33v-52.4h8.27Z"/>
      <path class="cls-5" d="m2749.17,435.73c-1.76,10.65-10.96,17.57-23.88,17.57-15.4,0-25.74-12.3-25.74-27.18s9.51-26.56,24.8-26.56,24.29,10.54,24.29,24.39c0,1.14-.1,2.89-.21,3.62h-40.73c.62,10.75,7.75,18.4,17.57,18.4,8.47,0,13.85-3.72,15.5-10.23h8.37Zm-41.03-14.78h32.04c-.62-8.78-6.51-14.36-15.81-14.36-8.78,0-14.68,5.16-16.22,14.36Z"/>
      <path class="cls-5" d="m2801.34,418.88v33.59h-8.27v-8.99c-2.79,5.99-9.72,9.82-17.78,9.82-10.96,0-18.09-6.2-18.09-15.71s8.17-16.22,20.78-16.22h11.78c2.27,0,3.31-1.14,3.31-2.79,0-7.13-5.07-11.99-13.96-11.99-7.65,0-13.64,4.75-14.06,10.44h-7.86c.93-10.02,10.44-17.47,22.12-17.47,13.54,0,22.01,7.75,22.01,19.33Zm-8.27,10.13v-1.34h-14.57c-7.75,0-12.82,3.72-12.82,9.81,0,5.37,4.24,8.79,10.86,8.79,10.44,0,16.54-6.51,16.54-17.26Z"/>
      <path class="cls-5" d="m2813.42,400.38h8.27v10.02c2.69-7.24,9.2-10.85,17.16-10.85,11.78,0,19.43,8.37,19.43,21.09v31.83h-8.27v-30.49c0-8.89-5.17-14.89-13.02-14.89-8.89,0-15.3,7.13-15.3,17.26v28.12h-8.27v-52.09Z"/>
      <path class="cls-5" d="m2868.8,426.43c0-15.19,8.89-26.87,25.12-26.87,7.34,0,14.16,3.72,17.26,9.3v-29.87h8.27v73.49h-8.27v-8.58c-3.1,5.69-9.92,9.4-17.26,9.4-16.23,0-25.12-11.68-25.12-26.87Zm43.1,0c0-11.78-6.82-19.43-17.26-19.43s-17.36,7.65-17.36,19.43,6.92,19.43,17.36,19.43,17.26-7.65,17.26-19.43Z"/>
      <path class="cls-5" d="m2930.38,426.43c0-15.71,11.06-26.87,26.46-26.87s26.56,11.16,26.56,26.87-11.06,26.87-26.56,26.87-26.46-11.27-26.46-26.87Zm44.55,0c0-11.37-7.34-19.43-18.09-19.43s-17.98,8.06-17.98,19.43,7.34,19.43,17.98,19.43,18.09-8.06,18.09-19.43Z"/>
      <path class="cls-5" d="m3060.58,418.88v33.59h-8.27v-8.99c-2.79,5.99-9.72,9.82-17.78,9.82-10.96,0-18.09-6.2-18.09-15.71s8.17-16.22,20.78-16.22h11.78c2.27,0,3.31-1.14,3.31-2.79,0-7.13-5.07-11.99-13.96-11.99-7.65,0-13.64,4.75-14.06,10.44h-7.86c.93-10.02,10.44-17.47,22.12-17.47,13.54,0,22.01,7.75,22.01,19.33Zm-8.27,10.13v-1.34h-14.57c-7.75,0-12.82,3.72-12.82,9.81,0,5.37,4.24,8.79,10.86,8.79,10.44,0,16.54-6.51,16.54-17.26Z"/>
      <path class="cls-5" d="m3069.66,426.43c0-13.95,8.89-26.87,25.32-26.87,11.68,0,22.12,6.82,23.67,18.4h-8.17c-1.03-6.31-7.54-10.96-15.4-10.96-11.37,0-16.84,8.79-16.84,19.43s5.58,19.43,16.84,19.43c7.86,0,13.54-3.93,15.4-10.23h8.07c-1.76,10.65-10.34,17.67-23.57,17.67-16.43,0-25.32-12.92-25.32-26.87Zm11.57,47.23l11.16-15.09h7.13l-7.44,15.09h-10.86Z"/>
      <path class="cls-5" d="m3125.66,426.43c0-15.71,11.06-26.87,26.46-26.87s26.56,11.16,26.56,26.87-11.06,26.87-26.56,26.87-26.46-11.27-26.46-26.87Zm44.55,0c0-11.37-7.34-19.43-18.09-19.43s-17.98,8.06-17.98,19.43,7.34,19.43,17.98,19.43,18.09-8.06,18.09-19.43Zm-23.77-38.66c-2.07,0-3.62,1.45-4.03,3.62h-6.41c.52-6.31,4.45-10.54,9.72-10.54,6.1,0,8.58,4.13,12.2,4.13,2.07,0,3.62-1.45,4.13-3.62h6.3c-.41,6.4-4.34,10.54-9.71,10.54-5.99,0-8.58-4.13-12.2-4.13Z"/>
      <path class="cls-5" d="m3235.82,435.73c-1.76,10.65-10.96,17.57-23.88,17.57-15.4,0-25.74-12.3-25.74-27.18s9.51-26.56,24.8-26.56,24.29,10.54,24.29,24.39c0,1.14-.1,2.89-.21,3.62h-40.73c.62,10.75,7.75,18.4,17.57,18.4,8.48,0,13.85-3.72,15.5-10.23h8.37Zm-41.03-14.78h32.04c-.62-8.78-6.51-14.36-15.81-14.36-8.78,0-14.68,5.16-16.22,14.36Z"/>
      <path class="cls-5" d="m3243.14,435.73h7.96c.72,6.72,5.27,10.33,12.82,10.33,6.51,0,10.85-3.62,10.85-7.86,0-15.5-30.28-1.55-30.28-24.08,0-8.78,7.45-14.57,18.4-14.57s19.22,6.31,19.84,15.92h-8.06c-.72-6.61-7.24-8.89-11.99-8.89-6.1,0-10.13,2.89-10.13,7.44,0,14.06,30.5.1,30.5,23.98,0,9.3-7.65,15.3-19.12,15.3-12.1,0-19.95-6.72-20.78-17.57Z"/>
      <path class="cls-5" d="m2552.33,542.72c-1.76,10.65-10.96,17.57-23.88,17.57-15.4,0-25.74-12.3-25.74-27.18s9.51-26.56,24.8-26.56,24.29,10.54,24.29,24.39c0,1.14-.1,2.89-.21,3.62h-40.73c.62,10.75,7.75,18.4,17.57,18.4,8.48,0,13.85-3.72,15.5-10.23h8.37Zm-41.03-14.78h32.04c-.62-8.78-6.51-14.36-15.81-14.36-8.78,0-14.68,5.16-16.22,14.36Z"/>
      <path class="cls-5" d="m2587.76,507.37h8.27v8.58c3.2-5.68,9.92-9.4,17.37-9.4,16.12,0,25.01,11.68,25.01,26.87s-9.1,26.87-25.22,26.87c-7.34,0-14.06-3.62-17.16-9.2v29.46h-8.27v-73.18Zm42.07,26.05c0-11.78-6.83-19.43-17.27-19.43s-17.26,7.65-17.26,19.43,6.83,19.43,17.26,19.43,17.27-7.65,17.27-19.43Z"/>
      <path class="cls-5" d="m2670.73,514.71c-10.54,0-13.54,9.51-13.54,21.81v22.95h-8.27v-52.09h8.27v10.54c2.17-7.13,6.51-10.54,14.16-10.54h6.61v7.34h-7.24Z"/>
      <path class="cls-5" d="m2681.26,533.42c0-15.71,11.06-26.87,26.46-26.87s26.56,11.16,26.56,26.87-11.06,26.87-26.56,26.87-26.46-11.27-26.46-26.87Zm44.55,0c0-11.37-7.34-19.43-18.09-19.43s-17.98,8.06-17.98,19.43,7.34,19.43,17.98,19.43,18.09-8.06,18.09-19.43Z"/>
      <path class="cls-5" d="m2745.22,507.37h8.27v8.58c3.2-5.68,9.92-9.4,17.37-9.4,16.12,0,25.01,11.68,25.01,26.87s-9.1,26.87-25.22,26.87c-7.34,0-14.06-3.62-17.16-9.2v29.46h-8.27v-73.18Zm42.07,26.05c0-11.78-6.83-19.43-17.27-19.43s-17.26,7.65-17.26,19.43,6.83,19.43,17.26,19.43,17.27-7.65,17.27-19.43Z"/>
      <path class="cls-5" d="m2803.39,533.42c0-15.71,11.06-26.87,26.46-26.87s26.56,11.16,26.56,26.87-11.06,26.87-26.56,26.87-26.46-11.27-26.46-26.87Zm44.55,0c0-11.37-7.34-19.43-18.09-19.43s-17.98,8.06-17.98,19.43,7.34,19.43,17.98,19.43,18.09-8.06,18.09-19.43Zm-12.92-47.03h9.61l-10.75,15.3h-7.86l8.99-15.3Z"/>
      <path class="cls-5" d="m2863.73,542.72h7.96c.72,6.72,5.27,10.33,12.82,10.33,6.51,0,10.85-3.62,10.85-7.86,0-15.5-30.28-1.55-30.28-24.08,0-8.78,7.45-14.57,18.4-14.57s19.22,6.31,19.84,15.92h-8.06c-.72-6.61-7.24-8.89-11.99-8.89-6.1,0-10.13,2.89-10.13,7.44,0,14.06,30.5.1,30.5,23.98,0,9.3-7.65,15.3-19.12,15.3-12.1,0-19.95-6.72-20.78-17.57Z"/>
      <path class="cls-5" d="m2923.77,485.98v11.57h-9.51v-11.57h9.51Zm-8.89,21.39h8.27v52.09h-8.27v-52.09Z"/>
      <path class="cls-5" d="m2950.63,490.73v16.64h16.02v7.34h-16.02v28.22c0,5.79,3.31,9.2,8.37,9.2h7.65v7.34h-7.96c-9.92,0-16.33-6.2-16.33-16.33v-28.42h-10.85v-7.34h10.85v-16.64h8.27Z"/>
      <path class="cls-5" d="m2971.09,533.42c0-15.71,11.06-26.87,26.46-26.87s26.56,11.16,26.56,26.87-11.06,26.87-26.56,26.87-26.46-11.27-26.46-26.87Zm44.55,0c0-11.37-7.34-19.43-18.09-19.43s-17.98,8.06-17.98,19.43,7.34,19.43,17.98,19.43,18.09-8.06,18.09-19.43Z"/>
      <path class="cls-5" d="m3031.43,542.72h7.96c.72,6.72,5.27,10.33,12.82,10.33,6.51,0,10.85-3.62,10.85-7.86,0-15.5-30.28-1.55-30.28-24.08,0-8.78,7.45-14.57,18.4-14.57s19.22,6.31,19.84,15.92h-8.06c-.72-6.61-7.24-8.89-11.99-8.89-6.1,0-10.13,2.89-10.13,7.44,0,14.06,30.5.1,30.5,23.98,0,9.3-7.65,15.3-19.12,15.3-12.1,0-19.95-6.72-20.78-17.57Z"/>
    </g>
    <rect class="cls-5" x="2495.01" y="638.7" width="236.15" height="11.03" rx="1.05" ry="1.05"/>
  </g>
  <path class="cls-5" d="m1565.77,632.97c-4.79-5.22-9.33-10.86-12.73-17.01-1.35-2.45.41-5.47,3.21-5.47h34.43c81.46,0,147.45-67.48,145.01-149.48-2.35-78.91-69.16-140.68-148.1-140.68h-215.23c-4.54,0-8.22,3.68-8.22,8.22v414.45c0,4.54,3.68,8.22,8.22,8.22h74.92c4.54,0,8.22-3.68,8.22-8.22v-127.18c0-3.4,4.15-5.05,6.49-2.59,2.46,2.07,6.13,15.61,15.2,30.62,58.54,96.81,163.04,139.3,278.49,109.39,3.6-.93,6.11-4.24,6.11-7.96v-59.18c0-4.71-4.51-8.02-9.04-6.73-7.46,2.13-15.13,3.56-22.8,4.66-10.85,1.56-21.82,2.36-32.79,2.43-12.91.08-25.83-.88-38.56-3.07-33.04-5.69-63.86-20.81-87.46-44.77-1.8-1.83-3.61-3.71-5.39-5.65Zm-110.19-106.29c-2.91,0-5.26-2.36-5.26-5.26v-118.88c0-2.91,2.36-5.26,5.26-5.26h124.65c35.62,0,66.18,27.87,66.83,63.49.66,36.29-28.55,65.91-64.69,65.91h-126.79Z"/>
</svg>