<?xml version="1.0" encoding="UTF-8"?>
<svg id="Camada_1" data-name="Camada 1" xmlns="http://www.w3.org/2000/svg" viewBox="0 0 2403.77 762.68">
  <defs>
    <style>
      .cls-1 {
        opacity: .7;
      }

      .cls-2 {
        opacity: .5;
      }

      .cls-3 {
        opacity: .3;
      }

      .cls-4 {
        fill: #69c555;
      }

      .cls-4, .cls-5 {
        stroke-width: 0px;
      }

      .cls-5 {
        fill: #2f473f;
      }
    </style>
  </defs>
  <path class="cls-5" d="m663.21,310.85c-107.93,9.62-194.85,96.54-204.47,204.47-12.55,140.81,104.92,258.28,245.72,245.73,107.94-9.62,194.85-96.54,204.47-204.48,12.55-140.81-104.92-258.27-245.73-245.72Zm8.9,368.5c-69.67-5.55-126.12-61.99-131.68-131.66-7.06-88.55,66.59-162.2,155.14-155.14,69.68,5.56,126.12,62,131.66,131.68,7.05,88.53-66.59,162.17-155.12,155.12Z"/>
  <g>
    <g>
      <circle class="cls-4" cx="2224.92" cy="197.39" r="25.15"/>
      <circle class="cls-4" cx="2356.46" cy="47.32" r="47.32"/>
      <polygon class="cls-4" points="2356.46 47.32 2320.87 16.13 2206.01 180.82 2243.84 213.97 2392.04 78.51 2356.46 47.32"/>
    </g>
    <g class="cls-1">
      <g>
        <circle class="cls-4" cx="2145.24" cy="189.38" r="17.92"/>
        <circle class="cls-4" cx="2150.26" cy="47.25" r="33.72"/>
        <polygon class="cls-4" points="2150.26 47.25 2116.57 46.06 2127.33 188.74 2163.15 190.01 2183.96 48.44 2150.26 47.25"/>
      </g>
    </g>
    <g class="cls-2">
      <g>
        <circle class="cls-4" cx="2087.87" cy="203.49" r="12.4"/>
        <circle class="cls-4" cx="2033.52" cy="121.46" r="23.33"/>
        <polygon class="cls-4" points="2033.52 121.46 2014.07 134.35 2077.53 210.34 2098.21 196.64 2052.98 108.58 2033.52 121.46"/>
      </g>
    </g>
    <g class="cls-3">
      <circle class="cls-4" cx="2045.1" cy="240.64" r="8.34"/>
      <circle class="cls-4" cx="1988.32" cy="206.64" r="15.69"/>
      <polygon class="cls-4" points="1988.32 206.64 1980.26 220.1 2040.81 247.79 2049.38 233.48 1996.39 193.18 1988.32 206.64"/>
    </g>
  </g>
  <path class="cls-5" d="m2331.64,415.89c-6.91-21.62-18.55-41.98-34.77-57.96-45.37-44.7-109.93-52.73-170.91-45.82-44.39,5.03-78.48,14.21-108.56,22.31-1.92.52-3.83,1.03-5.73,1.54-4.38,1.18-6.96,5.65-5.81,10.04l16.55,62.71c1.16,4.41,5.66,7.05,10.06,5.87,2.02-.54,4.04-1.09,6.07-1.63,6.32-1.7,12.63-3.4,18.96-5.04,43.84-11.38,92.67-22.44,138.01-14.78,13.84,2.34,27.69,6.83,38.53,15.76,22.02,18.13,26.16,49.18,24.85,75.97-.12,2.49-2.46,4.2-4.87,3.6-39.4-9.78-98.67-16.93-169.72-1.55-45.23,9.79-82.8,39.41-100.48,79.22-17.28,38.89-14.08,84.02,8.78,123.79,32.88,57.21,103.05,72.68,169.31,72.68,69.75,0,135.17-17.14,148.19-20.75l23.75-6.59c3.56-.99,6.03-4.23,6.03-7.93v-210.61c0-33.92,2.3-67.82-8.24-100.79Zm-73.08,250.3c0,2.54-1.77,4.74-4.27,5.24-13.3,2.62-26.71,4.73-40.18,6.34-34.91,4.15-71.1,5.98-105.65-1.75-12.62-2.82-25.26-7.14-35.18-15.42-19.66-16.41-25.42-47.35-11.04-68.95,17.73-26.66,56.26-30.02,85.3-31.52,6.37-.33,12.74-.51,19.1-.51,30.01-.01,59.73,3.86,88.34,13.8,2.15.75,3.58,2.75,3.58,5.03v87.74Z"/>
  <path class="cls-5" d="m387.91,319.69h-65.86c-4.55,0-8.23,3.69-8.23,8.23v288.83c0,2.39-3.06,3.39-4.47,1.45L94.5,323.02c-1.55-2.13-4.02-3.39-6.66-3.39H8.23c-4.55,0-8.23,3.69-8.23,8.23v414.74c0,4.55,3.69,8.23,8.23,8.23h65.86c4.55,0,8.23-3.69,8.23-8.23v-288.83c0-2.39,3.06-3.39,4.47-1.45l214.79,295.13c1.55,2.13,4.02,3.39,6.66,3.39h79.67c4.55,0,8.23-3.69,8.23-8.23v-414.69c0-4.55-3.69-8.23-8.23-8.23Z"/>
  <rect class="cls-5" x="1819.41" y="320.33" width="91.36" height="430.79" rx="8.23" ry="8.23"/>
  <path class="cls-5" d="m1295.05,319.6h-357.69c-4.55,0-8.23,3.69-8.23,8.23v74.9c0,4.55,3.69,8.23,8.23,8.23h130.71c1.36,0,2.46,1.1,2.46,2.46v329.47c0,4.55,3.69,8.23,8.23,8.23h74.9c4.55,0,8.23-3.69,8.23-8.23v-329.47c0-1.36,1.1-2.46,2.46-2.46h130.71c4.55,0,8.23-3.69,8.23-8.23v-74.9c0-4.55-3.69-8.23-8.23-8.23Z"/>
  <path class="cls-5" d="m1565.77,632.97c-4.79-5.22-9.33-10.86-12.73-17.01-1.35-2.45.41-5.47,3.21-5.47h34.43c81.46,0,147.45-67.48,145.01-149.48-2.35-78.91-69.16-140.68-148.1-140.68h-215.23c-4.54,0-8.22,3.68-8.22,8.22v414.45c0,4.54,3.68,8.22,8.22,8.22h74.92c4.54,0,8.22-3.68,8.22-8.22v-127.18c0-3.4,4.15-5.05,6.49-2.59,2.46,2.07,6.13,15.61,15.2,30.62,58.54,96.81,163.04,139.3,278.49,109.39,3.6-.93,6.11-4.24,6.11-7.96v-59.18c0-4.71-4.51-8.02-9.04-6.73-7.46,2.13-15.13,3.56-22.8,4.66-10.85,1.56-21.82,2.36-32.79,2.43-12.91.08-25.83-.88-38.56-3.07-33.04-5.69-63.86-20.81-87.46-44.77-1.8-1.83-3.61-3.71-5.39-5.65Zm-110.19-106.29c-2.91,0-5.26-2.36-5.26-5.26v-118.88c0-2.91,2.36-5.26,5.26-5.26h124.65c35.62,0,66.18,27.87,66.83,63.49.66,36.29-28.55,65.91-64.69,65.91h-126.79Z"/>
</svg>